<?xml version="1.0" encoding="iso-8859-1"?>
<!-- Generator: Adobe Illustrator 19.0.0, SVG Export Plug-In . SVG Version: 6.00 Build 0)  -->
<svg version="1.1" id="Layer_1" xmlns="http://www.w3.org/2000/svg" xmlns:xlink="http://www.w3.org/1999/xlink" x="0px" y="0px"
	 viewBox="0 0 512 512" style="enable-background:new 0 0 512 512;" xml:space="preserve">
<g>
	<path style="fill:#38454F;" d="M512,256L512,256c0,16.958-6.709,33.192-18.697,45.18l-85.725,85.725
		c-6.621,6.621-15.598,10.337-24.964,10.337H129.386c-9.366,0-18.317-3.69-24.938-10.311
		c-19.341-19.332-61.308-61.308-85.751-85.751C6.709,289.192,0,272.958,0,256s6.709-33.192,18.697-45.18l85.725-85.725
		c6.621-6.621,15.598-10.337,24.964-10.337h253.228c9.366,0,18.344,3.716,24.964,10.337l85.725,85.725
		C505.291,222.808,512,239.042,512,256"/>
	<g>
		<path style="fill:#546A79;" d="M61.793,256c0-9.746-7.91-17.655-17.655-17.655S26.483,246.254,26.483,256
			s7.91,17.655,17.655,17.655S61.793,265.746,61.793,256"/>
		<path style="fill:#546A79;" d="M485.517,256c0-9.746-7.91-17.655-17.655-17.655c-9.746,0-17.655,7.91-17.655,17.655
			s7.91,17.655,17.655,17.655C477.608,273.655,485.517,265.746,485.517,256"/>
		<polygon style="fill:#546A79;" points="132.414,344.279 379.586,344.279 379.586,167.728 132.414,167.728 		"/>
	</g>
	<g>
		<path style="fill:#232D33;" d="M176.552,264.828c-4.873,0-8.828-3.946-8.828-8.828v-52.965c0-4.882,3.955-8.828,8.828-8.828
			c4.873,0,8.828,3.946,8.828,8.828V256C185.379,260.882,181.425,264.828,176.552,264.828"/>
		<path style="fill:#232D33;" d="M256,317.793c-4.873,0-8.828-3.946-8.828-8.828V256c0-4.882,3.955-8.828,8.828-8.828
			s8.828,3.946,8.828,8.828v52.966C264.828,313.847,260.873,317.793,256,317.793"/>
		<path style="fill:#232D33;" d="M335.448,264.828c-4.873,0-8.828-3.946-8.828-8.828v-52.965c0-4.882,3.955-8.828,8.828-8.828
			s8.828,3.946,8.828,8.828V256C344.276,260.882,340.321,264.828,335.448,264.828"/>
	</g>
</g>
<g>
</g>
<g>
</g>
<g>
</g>
<g>
</g>
<g>
</g>
<g>
</g>
<g>
</g>
<g>
</g>
<g>
</g>
<g>
</g>
<g>
</g>
<g>
</g>
<g>
</g>
<g>
</g>
<g>
</g>
</svg>
